<svg width="32" height="32" viewBox="0 0 32 32" fill="none" xmlns="http://www.w3.org/2000/svg">
  <circle cx="16" cy="14" r="10.5" fill="none" stroke="#FAFAF7" stroke-width="3"/>
  <g stroke="#FAFAF7" stroke-width="1.1" stroke-linecap="round" opacity=".55">
    <path d="M16 3.5v2.2M16 22.3v2.2M5.5 14h2.2M24.3 14h2.2M8.6 6.6l1.5 1.5M21.9 21.9l1.5 1.5M23.4 6.6l-1.5 1.5M10.1 21.9l-1.5 1.5"/>
  </g>
  <circle cx="16" cy="14" r="6" fill="none" stroke="#FAFAF7" stroke-width="1.4"/>
  <g stroke="#FAFAF7" stroke-width="2" stroke-linecap="round">
    <path d="M16 14L16 8.4"/>
    <path d="M16 14L20.9 11.7"/>
    <path d="M16 14L19 18.8"/>
    <path d="M16 14L13 18.8"/>
    <path d="M16 14L11.1 11.7"/>
  </g>
  <circle cx="16" cy="14" r="2.2" fill="#FAFAF7"/>
  <path d="M4.5 27.5h23" stroke="#FAFAF7" stroke-width="2" stroke-linecap="round"/>
  <path d="M5 26.5 L13.5 21.5 L13.5 26.5 Z" fill="#FF5A1F" stroke="#FF5A1F" stroke-width="1.4" stroke-linejoin="round"/>
</svg>
